<svg width="49" height="41" viewBox="0 0 49 41" fill="none" xmlns="http://www.w3.org/2000/svg">
<path d="M43.0886 8.44937H38.019V3.37975C38.019 2.48338 37.6629 1.62373 37.0291 0.989905C36.3953 0.356079 35.5356 0 34.6393 0H14.3608C13.4644 0 12.6048 0.356079 11.9709 0.989905C11.3371 1.62373 10.981 2.48338 10.981 3.37975V8.44937H5.91142C4.56687 8.44937 3.27739 8.98349 2.32665 9.93422C1.37592 10.885 0.841797 12.1744 0.841797 13.519V37.1772C0.841797 38.0736 1.19788 38.9332 1.8317 39.5671C2.46553 40.2009 3.32518 40.557 4.22154 40.557H44.7785C45.6749 40.557 46.5345 40.2009 47.1683 39.5671C47.8022 38.9332 48.1582 38.0736 48.1582 37.1772V13.519C48.1582 12.1744 47.6241 10.885 46.6734 9.93422C45.7227 8.98349 44.4332 8.44937 43.0886 8.44937ZM14.3608 3.37975H34.6393V8.44937H14.3608V3.37975ZM44.7785 37.1772H4.22154V21.9684H17.7405V30.4177H31.2595V21.9684H44.7785V37.1772ZM21.1203 21.9684H27.8798V27.038H21.1203V21.9684ZM4.22154 18.5886V13.519C4.22154 13.0708 4.39958 12.641 4.7165 12.3241C5.03341 12.0072 5.46323 11.8291 5.91142 11.8291H43.0886C43.5368 11.8291 43.9666 12.0072 44.2836 12.3241C44.6005 12.641 44.7785 13.0708 44.7785 13.519V18.5886H4.22154Z" fill="#0D5C63"/>
</svg>
